<svg width="16" height="15" viewBox="0 0 16 15" fill="none" xmlns="http://www.w3.org/2000/svg">
<path d="M15.5907 3.19035L9.9177 0.0702164C9.83395 0.024153 9.73991 0 9.64432 0C9.54874 0 9.4547 0.024153 9.37094 0.0702164L3.69798 3.19035C3.60903 3.23932 3.53486 3.31126 3.48321 3.39868C3.43155 3.48609 3.4043 3.58576 3.4043 3.6873C3.4043 3.78883 3.43155 3.88851 3.48321 3.97592C3.53486 4.06333 3.60903 4.13528 3.69798 4.18425L9.07703 7.14287V13.2228L7.3546 12.2758L6.80784 13.2696L9.37094 14.6792C9.45467 14.7254 9.54872 14.7496 9.64432 14.7496C9.73993 14.7496 9.83397 14.7254 9.9177 14.6792L15.5907 11.5591C15.6797 11.5102 15.7539 11.4382 15.8056 11.3508C15.8573 11.2634 15.8846 11.1637 15.8846 11.0621V3.6873C15.8846 3.58574 15.8573 3.48605 15.8056 3.39863C15.7539 3.31122 15.6797 3.23929 15.5907 3.19035ZM9.64432 1.21479L14.14 3.6873L9.64432 6.1598L5.14861 3.6873L9.64432 1.21479ZM14.75 10.7267L10.2116 13.2228V7.14287L14.75 4.64677V10.7267Z" fill="black"/>
<path d="M0.000204086 7.37476L4.53857 7.37476V6.24016L0.000204086 6.24016V7.37476Z" fill="black"/>
<path d="M1.13448 11.9131H5.67285V10.7785H1.13448V11.9131Z" fill="black"/>
<path d="M2.26925 9.64392H6.80762V8.50933H2.26925V9.64392Z" fill="black"/>
</svg>
