<svg width="43" height="42" viewBox="0 0 43 42" fill="none" xmlns="http://www.w3.org/2000/svg">
<path d="M9.90956 9.88889V14.3333M27.7287 5.44444V9.88889M14.3643 5.44444L16.5917 7.66667M34.4109 16.5556L36.6382 18.7778M7.68217 16.5556L5.45478 18.7778M21.0465 9.88889L18.8191 12.1111M32.1835 12.1111L29.9561 14.3333M23.2739 3.22222L21.0465 5.44444M14.3643 32.1111V36.5556M34.4109 23.2222V27.6667M23.2739 34.3333L21.0465 36.5556M27.7287 29.8889L29.9561 32.1111M9.90956 21V25.4444M7.68217 27.6667L5.45478 29.8889M21.0465 27.6667C24.7371 27.6667 27.7287 24.682 27.7287 21C27.7287 17.318 24.7371 14.3333 21.0465 14.3333C17.3559 14.3333 14.3643 17.318 14.3643 21C14.3643 24.682 17.3559 27.6667 21.0465 27.6667ZM21.0465 41C32.118 41 41.093 32.0458 41.093 21C41.093 9.95431 32.118 1 21.0465 1C9.97513 1 1 9.95431 1 21C1 32.0458 9.97513 41 21.0465 41Z" stroke="black" stroke-width="2"/>
</svg>
