<svg width="41" height="40" viewBox="0 0 41 40" fill="none" xmlns="http://www.w3.org/2000/svg">
<path d="M26.4287 4.7846C22.8057 3.27358 18.7473 3.09921 15.0012 4.29382C14.5707 4.43116 14.3334 4.89054 14.4709 5.31991C14.6085 5.74937 15.0691 5.98616 15.4993 5.84897C18.8755 4.77226 22.5328 4.92929 25.7975 6.29093C25.9006 6.3339 26.0075 6.35429 26.1127 6.35429C26.4328 6.35429 26.7367 6.16562 26.8679 5.85257C27.0424 5.43663 26.8457 4.95843 26.4287 4.7846Z" fill="black"/>
<path d="M28.8421 6.03526C28.8332 6.02932 28.8219 6.02213 28.8127 6.01659C28.4271 5.78151 27.9235 5.90268 27.6879 6.28745C27.4543 6.66901 27.5718 7.16627 27.9499 7.40385C28.0855 7.48971 28.2373 7.53088 28.3874 7.53088C28.6519 7.53088 28.9113 7.4033 29.069 7.16729C29.3197 6.79221 29.2181 6.28534 28.8421 6.03526Z" fill="black"/>
<path d="M35.026 12.6472C34.7065 12.3284 34.1883 12.3284 33.8688 12.6472L32.7233 13.7901C32.4038 14.1089 32.4038 14.6258 32.7233 14.9446C32.883 15.104 33.0925 15.1837 33.3018 15.1837C33.5111 15.1837 33.7207 15.104 33.8804 14.9446L35.0259 13.8017C35.3455 13.4829 35.3455 12.9659 35.026 12.6472Z" fill="black"/>
<path d="M6.57772 16.7669C6.25815 16.4481 5.74 16.4481 5.42051 16.7669L4.27496 17.9098C3.95547 18.2286 3.95547 18.7456 4.27496 19.0643C4.4347 19.2238 4.64417 19.3034 4.85349 19.3034C5.0628 19.3034 5.27235 19.2237 5.43217 19.0643L6.57772 17.9214C6.89729 17.6025 6.89729 17.0856 6.57772 16.7669Z" fill="black"/>
<path d="M9.04495 7.83086C8.72538 7.51211 8.20722 7.51211 7.88773 7.83086L6.74218 8.97375C6.42269 9.29258 6.42269 9.80953 6.74218 10.1283C6.90193 10.2877 7.1114 10.3673 7.32071 10.3673C7.53003 10.3673 7.7395 10.2877 7.8994 10.1283L9.04495 8.98539C9.36452 8.66656 9.36452 8.14961 9.04495 7.83086Z" fill="black"/>
<path d="M11.8497 12.649L10.7051 11.507C10.3855 11.1882 9.86734 11.1881 9.54785 11.507C9.22835 11.8258 9.22835 12.3427 9.54785 12.6615L10.6925 13.8035C10.8523 13.963 11.0617 14.0426 11.2711 14.0426C11.4805 14.0426 11.6899 13.9629 11.8497 13.8035C12.1693 13.4847 12.1693 12.9677 11.8497 12.649Z" fill="black"/>
<path d="M32.243 17.9095L31.0983 16.7675C30.7788 16.4487 30.2608 16.4488 29.9412 16.7675C29.6216 17.0863 29.6217 17.6032 29.9412 17.922L31.0859 19.0639C31.2457 19.2234 31.4551 19.303 31.6644 19.303C31.8737 19.303 32.0832 19.2232 32.2429 19.0639C32.5627 18.7452 32.5626 18.2283 32.243 17.9095Z" fill="black"/>
<path d="M24.9271 9.8911L23.7825 8.74915C23.4629 8.4304 22.9447 8.43032 22.6252 8.74915C22.3057 9.06798 22.3057 9.58493 22.6252 9.90368L23.7698 11.0456C23.9296 11.2051 24.1391 11.2848 24.3484 11.2848C24.5578 11.2848 24.7672 11.2051 24.9271 11.0456C25.2466 10.7268 25.2466 10.2099 24.9271 9.8911Z" fill="black"/>
<path d="M15.2851 7.60841C14.9794 7.27637 14.4617 7.25466 14.129 7.55981L12.9372 8.6527C12.6045 8.95778 12.5827 9.47419 12.8885 9.80606C13.0499 9.98122 13.2701 10.07 13.4911 10.07C13.6891 10.07 13.8876 9.9988 14.0446 9.85466L15.2364 8.76177C15.5691 8.45669 15.5909 7.94028 15.2851 7.60841Z" fill="black"/>
<path d="M20.0585 11.3469H20.0376C20.037 11.3469 20.0365 11.3469 20.0359 11.3469C19.5847 11.3469 19.2187 11.7113 19.2177 12.1616C19.2169 12.6125 19.5825 12.9786 20.0344 12.9795H20.0554C20.0559 12.9795 20.0565 12.9795 20.057 12.9795C20.5082 12.9795 20.8744 12.6152 20.8752 12.1648C20.876 11.7139 20.5104 11.3477 20.0585 11.3469Z" fill="black"/>
<path d="M34.2215 5.85789C30.4353 2.08031 25.4011 0 20.0465 0C14.6919 0 9.65772 2.08031 5.87151 5.85789C2.08523 9.63539 0 14.6578 0 20C0 25.3422 2.08515 30.3647 5.87151 34.1421C9.6578 37.9196 14.6919 40 20.0465 40C25.4011 40 30.4353 37.9197 34.2215 34.1421C38.0078 30.3646 40.093 25.3422 40.093 20C40.093 14.6578 38.0079 9.63531 34.2215 5.85789ZM20.0465 38.3673C12.6656 38.3673 6.28662 34.0109 3.35364 27.7405C3.88464 27.6967 4.38149 27.4703 4.77193 27.0881C5.22266 26.647 5.48115 26.0338 5.48115 25.406V24.6745C5.48115 24.0925 5.95311 23.6101 6.53321 23.5989C6.81206 23.5927 7.07947 23.7022 7.28628 23.9046C7.50319 24.117 7.62762 24.4112 7.62762 24.7118V26.5641C7.62762 28.0292 8.8196 29.2439 10.2847 29.2719C10.302 29.2722 10.3193 29.2723 10.3367 29.2723C11.0394 29.2723 11.7047 28.999 12.2152 28.4993C12.7439 27.9819 13.0471 27.2629 13.0471 26.5266V25.1036C14.6267 27.2539 17.1756 28.653 20.0464 28.653C24.1347 28.653 27.5709 25.8161 28.4824 22.0118C28.5889 22.1462 28.6531 22.3155 28.6531 22.4985V24.512C28.6531 26.049 29.9035 27.3233 31.4405 27.3527C31.4588 27.353 31.4769 27.3532 31.495 27.3532C32.2318 27.3532 32.9297 27.0664 33.4653 26.5423C34.0202 25.9992 34.3383 25.2446 34.3383 24.472V22.5301C34.3383 22.309 34.43 22.0926 34.5897 21.9362C34.7406 21.7886 34.9365 21.711 35.1368 21.7132C35.5598 21.7213 35.9042 22.0735 35.9042 22.4984V22.7109C35.9042 23.8366 36.6928 24.7961 37.7464 25.0578C35.5393 32.7341 28.4401 38.3673 20.0465 38.3673ZM37.5406 22.7112V22.4986C37.5406 21.1907 36.4763 20.1061 35.1682 20.0811C34.5233 20.0687 33.9108 20.3138 33.4437 20.7709C32.9722 21.2323 32.7019 21.8734 32.7019 22.5302V24.4721C32.7019 24.8091 32.5623 25.139 32.3193 25.377C32.0867 25.6045 31.7832 25.7255 31.472 25.7205C30.82 25.708 30.2897 25.1659 30.2897 24.512V22.4985C30.2897 21.4709 29.6325 20.5815 28.7164 20.2352C28.7185 20.157 28.7198 20.0786 28.7198 19.9999C28.7198 16.4015 26.4483 13.1415 23.0674 11.8877C22.6437 11.7307 22.1728 11.9459 22.0155 12.3685C21.8581 12.7911 22.0738 13.261 22.4974 13.418C25.2402 14.4353 27.0831 17.0803 27.0831 19.9999C27.0831 23.8709 23.9264 27.0203 20.0464 27.0203C16.1664 27.0203 13.0097 23.8709 13.0097 19.9999C13.0097 17.0802 14.8527 14.4352 17.5957 13.4182C18.0193 13.2612 18.235 12.7912 18.0776 12.3687C17.9202 11.9462 17.4495 11.7308 17.0257 11.8879C13.6448 13.1414 11.3732 16.4014 11.3732 20C11.3732 21.0711 11.5698 22.097 11.928 23.0446C11.5978 23.457 11.4106 23.9737 11.4106 24.514V26.5267C11.4106 26.8273 11.2862 27.1216 11.0693 27.3339C10.8624 27.5363 10.5966 27.6443 10.3162 27.6396C9.73618 27.6285 9.26423 27.1461 9.26423 26.5641V24.7119C9.26423 23.9756 8.96103 23.2566 8.43238 22.7391C7.90921 22.2271 7.22371 21.9516 6.50196 21.9666C5.03684 21.9945 3.84486 23.2093 3.84486 24.6744V25.4059C3.84486 25.5982 3.76506 25.7865 3.62607 25.9226C3.49545 26.0503 3.32788 26.1184 3.15357 26.1155C2.88936 26.1105 2.65342 25.9484 2.54802 25.7085C1.95735 23.9108 1.63653 21.9922 1.63653 19.9999C1.63645 9.87226 9.89522 1.63266 20.0465 1.63266C30.1978 1.63266 38.4566 9.87227 38.4566 20C38.4566 21.1861 38.3419 22.3458 38.1256 23.4698C37.7903 23.3809 37.5406 23.0727 37.5406 22.7112Z" fill="black"/>
</svg>
