<svg width="41" height="40" viewBox="0 0 41 40" fill="none" xmlns="http://www.w3.org/2000/svg">
<path d="M20.0938 0C31.1388 0.000389701 40.0923 8.93336 40.0923 19.9527C40.0923 25.4623 37.8539 30.4504 34.235 34.0611C30.6068 37.7284 25.5688 40 19.9991 40C8.9539 40 0 31.0669 0 20.0473C0 14.4905 2.27685 9.46417 5.95052 5.84646L5.95266 5.84435C9.55192 2.23416 14.5345 0 20.0402 0H20.0968H20.0939H20.0938ZM20.0938 38.0916C30.1349 38.0916 38.2749 29.9706 38.2749 19.9527C38.2749 9.93485 30.135 1.81386 20.0938 1.81386C10.0528 1.81386 1.91281 9.93485 1.91281 19.9527C1.92413 29.9659 10.0573 38.0802 20.0927 38.0916H20.0938ZM20.0938 13.8581C23.4676 13.8581 26.2027 16.5867 26.2027 19.9527C26.2027 23.3187 23.4676 26.0474 20.0938 26.0474C16.72 26.0474 13.985 23.3187 13.985 19.9527C13.9891 16.5884 16.7217 13.8622 20.0934 13.8581H20.0938ZM20.0938 24.2335C22.4635 24.2335 24.3845 22.3169 24.3845 19.9527C24.3845 17.5885 22.4635 15.672 20.0938 15.672C17.7241 15.672 15.8031 17.5885 15.8031 19.9527C15.8062 22.3157 17.7254 24.2304 20.0936 24.2335H20.0939H20.0938ZM32.8823 24.0593L31.597 22.7769L35.0695 19.3124L36.3549 20.5948L32.8823 24.0593ZM30.1026 12.1113L26.63 10.37L27.448 8.74829L30.9206 10.4897L30.1026 12.1113ZM10.5852 16.4881H8.76707V13.0237H10.5852V16.4881ZM9.03249 25.7825L5.55991 22.318L6.84712 21.0338L10.3197 24.4983L9.03249 25.7825ZM20.0938 34.7177H14.8941V32.9039H20.0938V34.7177ZM27.948 32.0695H26.1299V28.6049H27.948V32.0695ZM17.0304 8.64677L16.2122 7.02515L19.6849 5.2838L20.5012 6.90356L17.0304 8.64677Z" fill="black"/>
</svg>
