<svg width="41" height="40" viewBox="0 0 41 40" fill="none" xmlns="http://www.w3.org/2000/svg">
<path d="M34.2215 5.85789C30.4353 2.08031 25.4011 0 20.0465 0C14.6919 0 9.6578 2.08039 5.87151 5.85789C2.08515 9.63531 0 14.6578 0 20C0 25.3422 2.08523 30.3646 5.87151 34.1421C9.65772 37.9197 14.6919 40 20.0465 40C25.4011 40 30.4352 37.9196 34.2215 34.1421C38.0079 30.3647 40.093 25.3422 40.093 20C40.093 14.6578 38.0078 9.63539 34.2215 5.85789ZM20.0465 38.3673C9.89522 38.3673 1.63645 30.1277 1.63645 20C1.63645 9.87227 9.89522 1.63266 20.0465 1.63266C30.1978 1.63266 38.4566 9.87227 38.4566 20C38.4566 30.1277 30.1978 38.3673 20.0465 38.3673Z" fill="black"/>
<path d="M20.2036 16.5036C22.3843 16.5036 24.1517 18.2669 24.1517 20.4425C24.1517 22.6181 22.3843 24.3814 20.2036 24.3814C18.023 24.3814 16.2556 22.6181 16.2556 20.4425C16.2556 18.2669 18.023 16.5036 20.2036 16.5036ZM20.2036 15.1906C17.3011 15.1906 14.9395 17.5467 14.9395 20.4425C14.9395 23.3382 17.3011 25.6943 20.2036 25.6943C23.1061 25.6943 25.4677 23.3382 25.4677 20.4425C25.4677 17.5467 23.1061 15.1906 20.2036 15.1906Z" fill="black"/>
<path d="M26.0987 34.8977C25.5894 34.8977 25.0761 34.8137 24.5754 34.6476L24.1826 34.5176C23.1495 34.1755 21.6992 33.9793 20.2036 33.9793C18.7079 33.9793 17.2577 34.1755 16.2246 34.5176L15.8318 34.6476C15.3304 34.8137 14.8178 34.8977 14.3085 34.8977C12.1601 34.8977 10.3493 33.3911 9.90444 31.2325L9.82154 30.8281C9.7485 30.4756 9.432 30.0423 9.09641 29.5835C8.80755 29.1869 8.50749 28.7773 8.28574 28.3197C8.08703 27.9114 7.90213 27.4978 7.7192 27.0895C7.15726 25.8336 6.62625 24.6474 5.8419 23.9535L5.53264 23.6778C4.51338 22.7744 3.9521 21.5619 3.95276 20.2647C3.95276 18.9668 4.51404 17.755 5.5333 16.851L5.84124 16.5772C6.02549 16.4131 6.00904 15.6332 5.99719 15.1179C5.97942 14.2809 5.95771 13.3309 6.40121 12.6154C6.90261 11.8059 7.73499 11.3103 8.46999 10.8731C9.1201 10.4858 9.73468 10.1207 9.82154 9.69929L9.90444 9.29686C10.3493 7.13901 12.1608 5.63173 14.3085 5.63173C14.8178 5.63173 15.331 5.71576 15.8318 5.88185L16.2246 6.01183C16.6681 6.16019 17.2827 5.89695 17.9506 5.65076C18.6073 5.40852 19.3508 5.07043 20.1911 5.07043H20.1937C20.9899 5.07043 21.7289 5.37176 22.4441 5.61728C23.1455 5.85821 23.843 6.10242 24.1826 5.9882L24.5754 5.87003C25.0768 5.70394 25.5894 5.62647 26.0987 5.62647C28.2471 5.62647 30.0586 7.13573 30.5027 9.29358L30.5856 9.69863C30.6633 10.0735 31.1943 10.449 31.7562 10.8455C32.3814 11.286 33.0907 11.7869 33.5151 12.5222C33.9382 13.2535 34.0323 14.1332 34.1165 14.9098C34.1902 15.5997 34.2672 16.3127 34.5653 16.5772L34.8745 16.8523C35.8938 17.7556 36.4544 18.9682 36.4544 20.2654C36.4551 21.5632 35.8931 22.7751 34.8739 23.6791L34.5659 23.9528C34.2067 24.2712 34.0126 25.0413 33.8244 25.7857C33.6408 26.5138 33.4506 27.2674 33.0723 27.9206C32.6801 28.5981 32.1234 29.095 31.6325 29.5342C31.1199 29.9918 30.6771 30.387 30.5856 30.8301L30.5027 31.2325C30.0586 33.3904 28.2471 34.8977 26.0987 34.8977ZM20.2036 32.6656C21.8585 32.6656 23.4193 32.8803 24.5978 33.2709L24.9906 33.4009C25.3578 33.523 25.7309 33.5841 26.0993 33.5841C27.6397 33.5841 28.8919 32.5324 29.2144 30.968L29.2973 30.5649C29.4762 29.697 30.127 29.116 30.7554 28.5548C31.1936 28.1628 31.6464 27.7584 31.9332 27.2628C32.2201 26.7678 32.3873 26.1048 32.5491 25.464C32.786 24.5266 33.0308 23.5576 33.6921 22.9707L34.0001 22.6976C34.735 22.0457 35.1397 21.1812 35.1391 20.264C35.1391 19.3469 34.735 18.4824 34.0007 17.8311L33.6914 17.5561C33.0144 16.956 32.9097 15.9864 32.8084 15.0496C32.7354 14.3708 32.6597 13.6684 32.3761 13.176C32.0958 12.6915 31.5378 12.2976 30.9976 11.9175C30.2514 11.391 29.4795 10.8475 29.2973 9.96385L29.2144 9.56011C28.8919 7.99506 27.6391 6.94403 26.0993 6.94403C25.7309 6.94403 25.3578 7.00574 24.9906 7.12719L24.5978 7.25718C24.3991 7.32282 24.1793 7.35565 23.9457 7.35565C23.3304 7.35565 22.6922 7.13704 22.0164 6.90464C21.4025 6.69457 20.7688 6.47662 20.2483 6.47662C19.5982 6.48844 18.9929 6.71164 18.4072 6.92828C17.8117 7.1482 17.1958 7.376 16.5641 7.376C16.3016 7.376 16.047 7.33595 15.8094 7.25718L15.4166 7.12719C15.0494 7.00509 14.6763 6.94403 14.3078 6.94403C12.7674 6.94403 11.5152 7.99572 11.1928 9.56011L11.1099 9.96319C10.9059 10.9512 10.0104 11.4836 9.14445 12.0003C8.50947 12.3777 7.85343 12.769 7.52048 13.3053C7.28228 13.69 7.29807 14.4332 7.31321 15.0883C7.33361 16.0238 7.35466 16.9902 6.71574 17.5574L6.40779 17.8305C5.67279 18.4824 5.26878 19.3469 5.26878 20.264C5.26812 21.1812 5.67279 22.0457 6.40713 22.697L6.71639 22.972C7.71196 23.8537 8.2989 25.1653 8.92072 26.5538C9.09839 26.9497 9.27736 27.3508 9.4695 27.746C9.64124 28.0978 9.9051 28.4596 10.1604 28.8088C10.5631 29.3603 10.9796 29.9307 11.1106 30.5629L11.1935 30.968C11.5159 32.5324 12.7688 33.5834 14.3085 33.5834C14.677 33.5834 15.0501 33.5217 15.4172 33.4002L15.8101 33.2703C16.9879 32.8803 18.5487 32.6656 20.2036 32.6656Z" fill="black"/>
<path d="M18.8073 10.5119C18.7942 10.5119 18.7817 10.5113 18.7685 10.5106L17.1222 10.4154C16.7589 10.3951 16.4819 10.0845 16.5036 9.72216C16.524 9.35913 16.8346 9.08275 17.1985 9.10507L18.8448 9.20026C19.2081 9.22061 19.4851 9.53112 19.4634 9.8935C19.4436 10.2428 19.1528 10.5119 18.8073 10.5119Z" fill="black"/>
<path d="M27.4799 18.4193C27.3799 18.4193 27.2779 18.3963 27.1825 18.3484C26.8588 18.1842 26.7298 17.789 26.8943 17.4654L27.6411 15.9988C27.8056 15.6758 28.2004 15.5472 28.5261 15.7113C28.8499 15.8754 28.9789 16.2706 28.8144 16.5942L28.0675 18.0608C27.9504 18.288 27.7201 18.4193 27.4799 18.4193Z" fill="black"/>
<path d="M10.3828 22.3647C10.2867 22.3647 10.188 22.3437 10.0946 22.2977C9.76822 22.1389 9.63267 21.7456 9.79191 21.42L10.5157 19.9403C10.675 19.6147 11.0671 19.4782 11.3955 19.6383C11.7219 19.7972 11.8574 20.1904 11.6982 20.5161L10.9744 21.9958C10.8612 22.2295 10.6263 22.3647 10.3828 22.3647Z" fill="black"/>
<path d="M15.4205 30.5471C15.3159 30.5471 15.2099 30.5221 15.1112 30.4696L13.6564 29.6943C13.3359 29.5236 13.2142 29.1265 13.386 28.8061C13.557 28.4857 13.9571 28.3656 14.2762 28.5363L15.7311 29.3116C16.0515 29.4823 16.1733 29.8795 16.0015 30.1998C15.8838 30.421 15.6561 30.5471 15.4205 30.5471Z" fill="black"/>
<path d="M22.8817 28.9596C22.6166 28.9596 22.3659 28.7981 22.2658 28.5355L21.6822 26.9961C21.5539 26.6567 21.7249 26.2779 22.0651 26.1499C22.4027 26.0232 22.785 26.1919 22.9133 26.532L23.497 28.0714C23.6253 28.4108 23.4542 28.7896 23.114 28.9176C23.0383 28.9458 22.9594 28.9596 22.8817 28.9596Z" fill="black"/>
<path d="M25.0848 31.6907C24.7966 31.6907 24.5314 31.4997 24.4511 31.2089C24.3551 30.859 24.5604 30.4979 24.9104 30.4021L26.5008 29.9655C26.8496 29.869 27.2135 30.0745 27.3095 30.4237C27.4056 30.7736 27.2003 31.1347 26.8502 31.2306L25.2598 31.6671C25.2019 31.6829 25.1427 31.6907 25.0848 31.6907Z" fill="black"/>
<path d="M29.6908 20.5305C29.4026 20.5305 29.1374 20.3395 29.0571 20.0487C28.9611 19.6988 29.1664 19.3377 29.5164 19.2419L31.1068 18.8053C31.4562 18.7081 31.8194 18.9143 31.9155 19.2635C32.0116 19.6134 31.8063 19.9745 31.4562 20.0703L29.8658 20.5069C29.8079 20.5227 29.7487 20.5305 29.6908 20.5305Z" fill="black"/>
<path d="M10.042 17.5836C9.88411 17.5836 9.72553 17.5271 9.59919 17.4129L8.37858 16.3054C8.11012 16.0612 8.09038 15.6463 8.3345 15.3778C8.57928 15.1099 8.99645 15.0903 9.26426 15.3338L10.4849 16.4413C10.7533 16.6855 10.7731 17.1004 10.529 17.3689C10.3993 17.5107 10.2203 17.5836 10.042 17.5836Z" fill="black"/>
<path d="M24.8558 13.2043C24.5906 13.2043 24.3399 13.0428 24.2399 12.7802L23.6562 11.2407C23.5279 10.9013 23.699 10.5226 24.0392 10.3945C24.3767 10.2685 24.759 10.4366 24.8873 10.7766L25.471 12.3161C25.5993 12.6555 25.4282 13.0343 25.088 13.1623C25.0124 13.1905 24.9334 13.2043 24.8558 13.2043Z" fill="black"/>
<path d="M13.6695 14.5172C13.4044 14.5172 13.1537 14.3557 13.0536 14.0931L12.47 12.5536C12.3417 12.2142 12.5128 11.8354 12.853 11.7074C13.1905 11.5807 13.5728 11.7501 13.7011 12.0895L14.2848 13.629C14.4131 13.9684 14.242 14.3471 13.9018 14.4752C13.8261 14.5034 13.7472 14.5172 13.6695 14.5172Z" fill="black"/>
<path d="M13.6695 25.6773C13.4044 25.6773 13.1537 25.5158 13.0536 25.2532L12.47 23.7138C12.3417 23.3744 12.5128 22.9956 12.853 22.8676C13.1905 22.7409 13.5728 22.9096 13.7011 23.2496L14.2848 24.7891C14.4131 25.1285 14.242 25.5073 13.9018 25.6353C13.8261 25.6635 13.7472 25.6773 13.6695 25.6773Z" fill="black"/>
<path d="M27.3385 25.5494C27.1944 25.5494 27.0496 25.5021 26.9279 25.405C26.6436 25.1778 26.5982 24.7649 26.8259 24.4826L27.857 23.1985C28.084 22.9156 28.4985 22.8703 28.7815 23.0968C29.0657 23.3239 29.1111 23.7368 28.8835 24.0191L27.8524 25.3032C27.7227 25.4653 27.5313 25.5494 27.3385 25.5494Z" fill="black"/>
</svg>
