<svg width="41" height="40" viewBox="0 0 41 40" fill="none" xmlns="http://www.w3.org/2000/svg">
<path d="M34.2215 5.85789C30.4353 2.08031 25.4011 0 20.0465 0C14.6919 0 9.6578 2.08039 5.87151 5.85789C2.08515 9.63531 0 14.6578 0 20C0 25.3422 2.08523 30.3646 5.87151 34.1421C9.65772 37.9197 14.6919 40 20.0465 40C25.4011 40 30.4352 37.9196 34.2215 34.1421C38.0079 30.3647 40.093 25.3422 40.093 20C40.093 14.6578 38.0078 9.63539 34.2215 5.85789ZM20.0465 38.3673C9.89522 38.3673 1.63645 30.1277 1.63645 20C1.63645 9.87227 9.89522 1.63266 20.0465 1.63266C30.1978 1.63266 38.4566 9.87227 38.4566 20C38.4566 30.1277 30.1978 38.3673 20.0465 38.3673Z" fill="black"/>
<path d="M22.9331 14.6887C22.5359 14.4735 22.0393 14.6202 21.8235 15.0164C21.6078 15.4126 21.7548 15.9083 22.1519 16.1234C23.5787 16.8965 24.4649 18.3819 24.4649 20C24.4649 22.4307 22.4827 24.4082 20.0464 24.4082C17.6101 24.4082 15.628 22.4307 15.628 20C15.628 18.3886 16.5089 16.9062 17.9268 16.131C18.3231 15.9144 18.4684 15.4183 18.2512 15.0229C18.0342 14.6274 17.5368 14.4826 17.1406 14.6992C15.1982 15.761 13.9916 17.7922 13.9916 20C13.9916 23.3309 16.7077 26.0408 20.0464 26.0408C23.3851 26.0408 26.1012 23.3309 26.1012 20C26.1013 17.783 24.8873 15.7478 22.9331 14.6887Z" fill="black"/>
<path d="M34.3134 22.3284C33.2915 20.9357 33.2915 19.0644 34.3134 17.6717C35.6405 15.8629 35.7671 13.5333 34.6436 11.5919C33.5201 9.6504 31.4343 8.59509 29.2009 8.83736C27.4809 9.02408 25.8567 8.08822 25.1589 6.509C24.2523 4.4579 22.2934 3.18369 20.0465 3.18369C17.7995 3.18369 15.8406 4.4579 14.9341 6.50908C14.2363 8.08822 12.6123 9.02392 10.892 8.83736C8.65863 8.59525 6.57278 9.65048 5.44931 11.5919C4.32584 13.5333 4.45231 15.8629 5.77953 17.6717C6.80143 19.0644 6.80143 20.9357 5.77953 22.3284C4.45239 24.1372 4.32584 26.4668 5.44931 28.4082C6.46628 30.1657 8.27141 31.1971 10.2616 31.197C10.4699 31.197 10.6805 31.1857 10.8921 31.1627C12.6123 30.976 14.2363 31.9119 14.9341 33.4911C15.8406 35.5422 17.7995 36.8164 20.0465 36.8164C22.2934 36.8164 24.2523 35.5422 25.1588 33.491C25.8567 31.9119 27.4804 30.976 29.2009 31.1627C31.4351 31.4051 33.5201 30.3497 34.6436 28.4082C35.7671 26.4668 35.6406 24.1371 34.3134 22.3284ZM33.2264 27.5919C32.432 28.9647 30.9576 29.7106 29.3778 29.5396C26.9463 29.2756 24.6485 30.599 23.6614 32.8323C23.0204 34.2827 21.6352 35.1837 20.0464 35.1837C18.4575 35.1837 17.0724 34.2826 16.4314 32.8323C15.5278 30.7881 13.5266 29.5063 11.329 29.5063C11.1258 29.5063 10.9208 29.5173 10.7149 29.5396C9.13521 29.7111 7.66077 28.9646 6.86635 27.5919C6.07193 26.2192 6.16143 24.5718 7.09986 23.2928C8.54493 21.3234 8.54493 18.6769 7.09986 16.7074C6.16143 15.4284 6.07193 13.781 6.86635 12.4082C7.66077 11.0354 9.13497 10.289 10.715 10.4605C10.921 10.4828 11.1257 10.4938 11.329 10.4938C13.5265 10.4936 15.5279 9.21189 16.4314 7.16775C17.0724 5.71736 18.4576 4.81634 20.0465 4.81634C21.6353 4.81634 23.0205 5.71736 23.6615 7.16767C24.6486 9.40087 26.9448 10.7238 29.378 10.4603C30.9575 10.2888 32.4321 11.0352 33.2265 12.4081C34.0209 13.7809 33.9315 15.4282 32.993 16.7073C31.5479 18.6767 31.5479 21.3232 32.993 23.2927C33.9313 24.5717 34.0208 26.219 33.2264 27.5919Z" fill="black"/>
<path d="M19.3978 7.74932C19.0781 7.43057 18.5601 7.43057 18.2406 7.74932L17.095 8.89221C16.7755 9.21104 16.7755 9.72799 17.095 10.0467C17.2549 10.2062 17.4642 10.2859 17.6736 10.2859C17.883 10.2859 18.0923 10.2062 18.2522 10.0467L19.3978 8.90385C19.7173 8.58502 19.7173 8.06807 19.3978 7.74932Z" fill="black"/>
<path d="M30.117 24.6472C29.7973 24.3284 29.2793 24.3284 28.9598 24.6472L27.8142 25.7901C27.4947 26.1089 27.4947 26.6258 27.8142 26.9446C27.974 27.104 28.1833 27.1837 28.3927 27.1837C28.6021 27.1837 28.8115 27.104 28.9713 26.9446L30.1169 25.8017C30.4365 25.4829 30.4365 24.9659 30.117 24.6472Z" fill="black"/>
<path d="M12.6952 18.8513C12.3756 18.5325 11.8576 18.5325 11.538 18.8513L10.3925 19.9942C10.073 20.313 10.073 20.8299 10.3925 21.1487C10.5523 21.3082 10.7616 21.3878 10.971 21.3878C11.1804 21.3878 11.3898 21.3081 11.5497 21.1487L12.6952 20.0058C13.0147 19.687 13.0147 19.1701 12.6952 18.8513Z" fill="black"/>
<path d="M28.7266 12.6472C28.407 12.3284 27.889 12.3284 27.5694 12.6472L26.4239 13.7901C26.1044 14.1089 26.1044 14.6258 26.4239 14.9446C26.5837 15.104 26.793 15.1837 27.0024 15.1837C27.2118 15.1837 27.4212 15.104 27.5811 14.9446L28.7266 13.8017C29.0461 13.4829 29.0461 12.9659 28.7266 12.6472Z" fill="black"/>
<path d="M19.3978 28.692C19.0781 28.3732 18.5601 28.3732 18.2406 28.692L17.095 29.8349C16.7755 30.1537 16.7755 30.6707 17.095 30.9894C17.2549 31.1489 17.4642 31.2285 17.6736 31.2285C17.883 31.2285 18.0923 31.1488 18.2522 30.9894L19.3978 29.8465C19.7173 29.5276 19.7173 29.0107 19.3978 28.692Z" fill="black"/>
<path d="M25.37 28.2383L24.2254 27.0963C23.9058 26.7775 23.3878 26.7776 23.0682 27.0963C22.7487 27.415 22.7487 27.932 23.0682 28.2507L24.2128 29.3927C24.3726 29.5522 24.5819 29.6318 24.7913 29.6318C25.0007 29.6318 25.2101 29.552 25.37 29.3927C25.6895 29.074 25.6895 28.557 25.37 28.2383Z" fill="black"/>
<path d="M11.7061 13.7896L10.5614 12.6477C10.2418 12.3289 9.72364 12.3289 9.40423 12.6477C9.08474 12.9664 9.08474 13.4834 9.40423 13.8021L10.5489 14.9441C10.7087 15.1036 10.9181 15.1832 11.1274 15.1832C11.3368 15.1832 11.5463 15.1035 11.7061 14.9441C12.0257 14.6253 12.0257 14.1085 11.7061 13.7896Z" fill="black"/>
<path d="M30.1165 19.993L28.9719 18.8509C28.6524 18.5323 28.1344 18.5322 27.8147 18.8509C27.4952 19.1697 27.4952 19.6866 27.8147 20.0054L28.9593 21.1474C29.1191 21.3069 29.3284 21.3865 29.5378 21.3865C29.7472 21.3865 29.9566 21.3067 30.1164 21.1474C30.436 20.8287 30.436 20.3118 30.1165 19.993Z" fill="black"/>
<path d="M11.2965 26.5309L10.1519 25.3889C9.83241 25.0701 9.31441 25.0701 8.99468 25.3889C8.67519 25.7076 8.67519 26.2246 8.99468 26.5433L10.1393 27.6854C10.2991 27.8448 10.5084 27.9244 10.7178 27.9244C10.9272 27.9244 11.1366 27.8447 11.2965 27.6854C11.616 27.3666 11.616 26.8497 11.2965 26.5309Z" fill="black"/>
<path d="M20.06 13.9593L20.0391 13.9592C20.038 13.9592 20.037 13.9592 20.0359 13.9592C19.5854 13.9592 19.2194 14.3226 19.2177 14.7724C19.2161 15.2232 19.581 15.5901 20.0328 15.5918L20.0538 15.5919C20.0549 15.5919 20.0558 15.5919 20.057 15.5919C20.5074 15.5919 20.8734 15.2285 20.8752 14.7787C20.8768 14.3278 20.5118 13.961 20.06 13.9593Z" fill="black"/>
</svg>
